<!DOCTYPE svg PUBLIC "-//W3C//DTD SVG 1.1//EN" "http://www.w3.org/Graphics/SVG/1.1/DTD/svg11.dtd">
<!-- Uploaded to: SVG Repo, www.svgrepo.com, Transformed by: SVG Repo Mixer Tools -->
<svg width="800px" height="800px" viewBox="-2.4 -2.4 28.80 28.80" fill="none" xmlns="http://www.w3.org/2000/svg">
<g id="SVGRepo_bgCarrier" stroke-width="0">
<path transform="translate(-2.4, -2.4), scale(0.8999999999999999)" d="M16,30.36859541671241C18.494472361960767,30.889283368847625,21.35283966436218,30.300106033169346,23.323266986757517,28.684270498455856C25.255302263630554,27.09991809976073,25.23463689569231,24.204836312083163,26.28242631180848,21.936561599045117C27.221999221115976,19.902556064672073,29.452664947405893,18.224187296083347,29.18254157243406,16C28.909342571496396,13.750488097331118,26.567080372092928,12.413370736306453,24.934940897752142,10.841409467489406C23.66937006891222,9.622501183511673,21.943123768227103,9.093156238049195,20.710813790450203,7.8406311699441265C18.881430417768765,5.981238180534341,18.53426539476631,2.377542282558719,16,1.7598977875621884C13.653469572784598,1.1880075649736035,11.583285728020572,3.6002779314653406,9.746377166251053,5.1684075205739575C8.124561435939356,6.552916955454948,7.179318147691872,8.446600110033238,6.0490463922517534,10.254814255873065C4.877920365736967,12.128387259456288,2.9999568467310667,13.790649712401724,2.975805730285014,15.999999999999998C2.9516310376314396,18.211507045071002,4.617647064854133,20.032574384286153,5.922643704238798,21.81816437007749C7.1209377503480376,23.45775621590396,8.703493970701075,24.641937935216596,10.252005564706284,25.95581840355188C12.12577970879026,27.545677504067804,13.594473983367243,29.86647383200022,16,30.36859541671241" fill="#8A6552 " strokewidth="0"/>
</g>
<g id="SVGRepo_tracerCarrier" stroke-linecap="round" stroke-linejoin="round"/>
<g id="SVGRepo_iconCarrier"> <path d="M3 13.6493C3 16.6044 5.41766 19 8.4 19L16.5 19C18.9853 19 21 16.9839 21 14.4969C21 12.6503 19.8893 10.9449 18.3 10.25C18.1317 7.32251 15.684 5 12.6893 5C10.3514 5 8.34694 6.48637 7.5 8.5C4.8 8.9375 3 11.2001 3 13.6493Z" stroke="#f8ffe5" stroke-width="2" stroke-linecap="round" stroke-linejoin="round"/> </g>
</svg>