<!DOCTYPE svg PUBLIC "-//W3C//DTD SVG 1.1//EN" "http://www.w3.org/Graphics/SVG/1.1/DTD/svg11.dtd">
<!-- Uploaded to: SVG Repo, www.svgrepo.com, Transformed by: SVG Repo Mixer Tools -->
<svg width="800px" height="800px" viewBox="-2.4 -2.4 28.80 28.80" fill="none" xmlns="http://www.w3.org/2000/svg">
<g id="SVGRepo_bgCarrier" stroke-width="0">
<path transform="translate(-2.4, -2.4), scale(0.8999999999999999)" d="M16,28.12063684935371C18.779985784167675,28.384859405770364,21.669555588994278,28.516610209100882,24.117352612464025,27.17257737788493C26.754339346033518,25.72466453567777,29.054482618176966,23.4022509465042,29.86803343518651,20.50599721110859C30.668100540230963,17.657745702899536,29.68714329589098,14.632578195409273,28.386179510652674,11.975486315912486C27.219068244002177,9.59177517477707,25.16669613147397,7.895844220385149,22.966835879881145,6.410973052041715C20.840751491237306,4.975899434125989,18.535792373078536,4.001568788396868,16,3.615009404718876C13.057217023294168,3.16640786073976,9.785991185228049,2.3884092052688297,7.297731559284127,4.022355051111797C4.785072559078227,5.672323041830986,4.363234181651102,9.05884304058568,3.382620209210888,11.90036479112159C2.3808299934401465,14.803248869453617,0.39963609438588676,17.847283109246227,1.5431776054088182,20.69730634094364C2.6805785012842884,23.532025453237882,6.214183013443819,24.33403099596042,8.931303642748798,25.729225867420993C11.199566140122238,26.893939781602743,13.461621129418802,27.879377718404665,16,28.12063684935371" fill="#8A6552 " strokewidth="0"/>
</g>
<g id="SVGRepo_tracerCarrier" stroke-linecap="round" stroke-linejoin="round"/>
<g id="SVGRepo_iconCarrier"> <path fill-rule="evenodd" clip-rule="evenodd" d="M12 6.00019C10.2006 3.90317 7.19377 3.2551 4.93923 5.17534C2.68468 7.09558 2.36727 10.3061 4.13778 12.5772C5.60984 14.4654 10.0648 18.4479 11.5249 19.7369C11.6882 19.8811 11.7699 19.9532 11.8652 19.9815C11.9483 20.0062 12.0393 20.0062 12.1225 19.9815C12.2178 19.9532 12.2994 19.8811 12.4628 19.7369C13.9229 18.4479 18.3778 14.4654 19.8499 12.5772C21.6204 10.3061 21.3417 7.07538 19.0484 5.17534C16.7551 3.2753 13.7994 3.90317 12 6.00019Z" stroke="#f8ffe5" stroke-width="2" stroke-linecap="round" stroke-linejoin="round"/> </g>
</svg>