<!DOCTYPE svg PUBLIC "-//W3C//DTD SVG 1.1//EN" "http://www.w3.org/Graphics/SVG/1.1/DTD/svg11.dtd">
<!-- Uploaded to: SVG Repo, www.svgrepo.com, Transformed by: SVG Repo Mixer Tools -->
<svg width="800px" height="800px" viewBox="-2.4 -2.4 28.80 28.80" fill="none" xmlns="http://www.w3.org/2000/svg" stroke="#d04343">
<g id="SVGRepo_bgCarrier" stroke-width="0" transform="translate(0,0), scale(1)">
<path transform="translate(-2.4, -2.4), scale(0.8999999999999999)" d="M16,30.510522925605375C18.023244346748797,30.51916438523626,20.251128241302176,30.368348819360946,21.838840703341468,29.114250936673695C23.437344446694294,27.85162926685851,23.74863172443094,25.58721935849474,24.584679577529656,23.729680210608777C25.235281456176192,22.284166709443912,25.660756183946155,20.802503678267723,26.243351459957267,19.328266644776214C26.86035388095187,17.766963530525047,27.915244589244036,16.3868199020727,28.14372367492676,14.723643209869135C28.394100487899042,12.901065539972604,28.419739660789375,10.947734299561384,27.622385191751604,9.289812780916694C26.816556428372905,7.614270849408312,24.974242583783145,6.765716377300566,23.676257035810078,5.434538599021369C22.152299692530548,3.8716104496386095,21.4070497601563,1.04702268631911,19.25115600059542,0.7045135889872647C17.049617032720725,0.3547527896512011,15.410942981807553,2.8257725963885254,13.407474478009414,3.8031263696517286C11.834245595087955,4.570595976493555,10.273680047151394,5.234134297971257,8.645972458967105,5.878049449875238C6.565614856316145,6.701031287307041,3.642094999864015,6.286434718357318,2.4098736783103014,8.153736909851425C1.206342646725901,9.977561975607477,2.785716606913013,12.437451579475265,2.876756313873564,14.620691508164555C2.9558249988038643,16.51685215951187,2.5001227501103296,18.399733981113776,2.9143544932886005,20.251783963052162C3.3464263831681187,22.183598096144948,4.073766883823728,24.077191427887517,5.333360267550653,25.60428555416541C6.610972544188087,27.15322525845377,8.35917360237877,28.225431481394523,10.18332356780536,29.064469168611108C12.018483911068087,29.90857119929183,13.980037799625862,30.501895484318567,16,30.510522925605375" fill="#8A6552" strokewidth="0"/>
</g>
<g id="SVGRepo_tracerCarrier" stroke-linecap="round" stroke-linejoin="round"/>
<g id="SVGRepo_iconCarrier"> <path d="M21 21V12C21 7.02944 16.9706 3 12 3C7.02944 3 3 7.02944 3 12V21M18 21V12C18 8.68629 15.3137 6 12 6C8.68629 6 6 8.68629 6 12V21M15 21V12C15 10.3431 13.6569 9 12 9C10.3431 9 9 10.3431 9 12V21" stroke="#f8ffe5" stroke-width="2" stroke-linecap="round" stroke-linejoin="round"/> </g>
</svg>